<svg width="16" height="16" viewBox="0 0 16 16" fill="none" xmlns="http://www.w3.org/2000/svg">
<path d="M7.99761 16C6.94692 16.0019 5.90624 15.7962 4.93533 15.3947C3.96441 14.9932 3.08244 14.4038 2.34004 13.6603C-0.780012 10.5403 -0.780012 5.46413 2.34004 2.34417C3.08131 1.59874 3.96311 1.00773 4.93435 0.605363C5.90556 0.202988 6.94696 -0.00276021 7.99826 2.79624e-05C10.1357 2.79624e-05 12.1451 0.832191 13.6558 2.34417C15.1672 3.85551 16 5.86485 16 8.00224C16 10.1396 15.1678 12.149 13.6558 13.6603C12.9133 14.4038 12.0312 14.9932 11.0602 15.3947C10.0891 15.7962 9.04836 16.0019 7.99761 16ZM7.99826 1.28028C7.11512 1.27777 6.24029 1.45052 5.42441 1.78851C4.60854 2.1265 3.86782 2.62302 3.2452 3.24929C1.9758 4.51869 1.27676 6.20668 1.27676 8.00224C1.27676 9.7978 1.9758 11.4852 3.2452 12.7552C5.86593 15.3759 10.1306 15.3765 12.7507 12.7552C14.0201 11.4858 14.7197 9.7978 14.7197 8.00224C14.7197 6.20668 14.0207 4.51931 12.7507 3.24929C12.128 2.6232 11.3874 2.12681 10.5717 1.78883C9.7559 1.45085 8.88125 1.278 7.99826 1.28028Z" fill="#EDEDED"/>
<path d="M5.28195 11.3576C5.15523 11.3579 5.03126 11.3205 4.92583 11.2502C4.82039 11.1799 4.73819 11.0799 4.68971 10.9628C4.6412 10.8457 4.62862 10.7169 4.65346 10.5926C4.67833 10.4684 4.73957 10.3543 4.82938 10.2649L10.261 4.83345C10.3204 4.77402 10.391 4.72689 10.4686 4.69469C10.5463 4.66253 10.6295 4.646 10.7135 4.646C10.7976 4.646 10.8808 4.66253 10.9585 4.69469C11.0361 4.72689 11.1067 4.77402 11.1661 4.83345C11.2255 4.89287 11.2727 4.96343 11.3049 5.04109C11.337 5.11875 11.3536 5.20196 11.3536 5.28601C11.3536 5.37005 11.337 5.4533 11.3049 5.53096C11.2727 5.60859 11.2255 5.67914 11.1661 5.73857L5.73452 11.1701C5.67524 11.2297 5.60472 11.277 5.52702 11.3092C5.44936 11.3414 5.36603 11.3578 5.28195 11.3576Z" fill="#EDEDED"/>
<path d="M10.7139 11.3576C10.6298 11.3577 10.5466 11.3412 10.4689 11.309C10.3912 11.2768 10.3207 11.2296 10.2613 11.1701L4.82971 5.73857C4.77028 5.67914 4.72315 5.60859 4.69099 5.53096C4.65883 5.4533 4.64226 5.37005 4.64226 5.28601C4.64226 5.20196 4.65883 5.11875 4.69099 5.04109C4.72315 4.96343 4.77028 4.89287 4.82971 4.83345C4.88917 4.77402 4.95973 4.72689 5.03736 4.69469C5.11503 4.66253 5.19827 4.646 5.28232 4.646C5.36637 4.646 5.44958 4.66253 5.52724 4.69469C5.60491 4.72689 5.67547 4.77402 5.73489 4.83345L11.1665 10.2649C11.2563 10.3543 11.3175 10.4684 11.3424 10.5926C11.3672 10.7169 11.3546 10.8457 11.3062 10.9628C11.2576 11.0799 11.1755 11.1799 11.07 11.2502C10.9646 11.3205 10.8406 11.3579 10.7139 11.3576Z" fill="#EDEDED"/>
</svg>
