<svg width="16" height="16" viewBox="0 0 16 16" fill="none" xmlns="http://www.w3.org/2000/svg">
<path fill-rule="evenodd" clip-rule="evenodd" d="M8 1.77778C6.52764 1.77778 5.17694 2.28804 4.11153 3.14211C3.72849 3.44916 3.16906 3.38756 2.862 3.00452C2.55494 2.62149 2.61654 2.06205 2.99958 1.755C4.36901 0.657227 6.10897 0 8 0C12.4183 0 16 3.58172 16 8C16 12.4183 12.4183 16 8 16C6.10897 16 4.36901 15.3428 2.99958 14.245C2.61654 13.938 2.55494 13.3785 2.862 12.9955C3.16906 12.6124 3.72849 12.5508 4.11153 12.8579C5.17694 13.7119 6.52764 14.2222 8 14.2222C11.4364 14.2222 14.2222 11.4364 14.2222 8C14.2222 4.56356 11.4364 1.77778 8 1.77778ZM4.1841 4.70479C4.53123 5.05193 4.53123 5.61474 4.1841 5.96188L3.03485 7.11111H10.6667C11.1576 7.11111 11.5556 7.50907 11.5556 8C11.5556 8.49093 11.1576 8.88889 10.6667 8.88889H3.03485L4.1841 10.0381C4.53123 10.3852 4.53123 10.9481 4.1841 11.2952C3.83696 11.6423 3.27415 11.6423 2.92701 11.2952L0.260347 8.62853C-0.0867822 8.28142 -0.0867822 7.71858 0.260347 7.37147L2.92701 4.70479C3.27415 4.35766 3.83696 4.35766 4.1841 4.70479Z" fill="#EDEDED"/>
</svg>
