<svg width="16" height="16" viewBox="0 0 16 16" fill="none" xmlns="http://www.w3.org/2000/svg">
<path d="M8 0C3.58871 0 0 2.65137 0 5.91047C0 6.9834 0.651294 8.13733 0.678588 8.18601C0.888941 8.55489 1.304 9.12786 1.60329 9.46371L7.08847 15.604C7.31294 15.8557 7.64518 16 8 16C8.35482 16 8.68706 15.8557 8.91153 15.6043L14.3972 9.46371C14.6969 9.12786 15.1115 8.55489 15.3219 8.18601C15.3492 8.13768 16 6.98375 16 5.91047C16 2.65137 12.4113 0 8 0ZM14.4541 7.91621C14.2664 8.24685 13.88 8.77983 13.6113 9.08092L8.12565 15.2216C8.01741 15.3429 7.98306 15.3429 7.87482 15.2216L2.38918 9.08092C2.12047 8.77983 1.73412 8.2465 1.54635 7.91586C1.53835 7.90161 0.941176 6.83946 0.941176 5.91047C0.941176 3.03485 4.10776 0.69535 8 0.69535C11.8922 0.69535 15.0588 3.03485 15.0588 5.91047C15.0588 6.84085 14.4602 7.90578 14.4541 7.91621Z" fill="#1D2730"/>
<path d="M8 2.78223C5.66447 2.78223 3.76471 4.18614 3.76471 5.9113C3.76471 7.63646 5.66447 9.04038 8 9.04038C10.3355 9.04038 12.2353 7.63646 12.2353 5.9113C12.2353 4.18614 10.3355 2.78223 8 2.78223ZM8 8.34503C6.184 8.34503 4.70589 7.25333 4.70589 5.9113C4.70589 4.56928 6.184 3.47758 8 3.47758C9.816 3.47758 11.2941 4.56928 11.2941 5.9113C11.2941 7.25333 9.816 8.34503 8 8.34503Z" fill="#1D2730"/>
</svg>
