<svg width="16" height="16" viewBox="0 0 16 16" fill="none" xmlns="http://www.w3.org/2000/svg">
<path d="M0.80015 8.53321C1.01235 8.53355 1.21596 8.4494 1.366 8.29934C1.3868 8.27854 2.66677 7.00092 2.66677 7.00092L3.32356 7.65826C3.57363 7.90855 3.91293 8.04918 4.26673 8.04918C4.62054 8.04918 4.95984 7.90855 5.20991 7.65826L9.12235 3.74433L10.3122 4.93475C10.8334 5.45513 11.6776 5.45513 12.1988 4.93475L14.5806 2.54965L14.7785 2.74752C14.9547 2.92355 15.2173 2.98086 15.4508 2.89424C15.6843 2.80763 15.846 2.59295 15.8649 2.34458L15.9982 0.626949V0.624282C16.0097 0.455884 15.9479 0.290716 15.8286 0.171309C15.7093 0.0519024 15.5442 -0.0100741 15.3758 0.00133871L13.6566 0.134674C13.4084 0.152432 13.1933 0.313528 13.1065 0.546815C13.0196 0.780102 13.077 1.04262 13.2532 1.21842L13.451 1.41683L11.2551 3.61393L10.0655 2.42351C9.81545 2.17322 9.47615 2.03259 9.12235 2.03259C8.76854 2.03259 8.42925 2.17322 8.17917 2.42351L4.26673 6.33771L3.61048 5.67983C3.08931 5.15931 2.24503 5.15931 1.72386 5.67983L0.237231 7.17052C0.00876211 7.39849 -0.059861 7.74166 0.0633682 8.03997C0.186597 8.33828 0.477404 8.53296 0.80015 8.53321ZM0.613488 7.54653L2.10119 6.05557C2.25124 5.90534 2.45485 5.82094 2.66717 5.82094C2.87949 5.82094 3.08311 5.90534 3.23316 6.05557L4.0782 6.90118C4.12822 6.95126 4.19609 6.97939 4.26687 6.97939C4.33764 6.97939 4.40551 6.95126 4.45553 6.90118L8.55623 2.79978C8.87296 2.49711 9.37173 2.49711 9.68847 2.79978L10.8783 3.9902C11.0894 4.19179 11.4216 4.19179 11.6327 3.9902L14.0169 1.60456C14.1208 1.50046 14.1208 1.33186 14.0169 1.22776L13.6294 0.840285C13.6001 0.813094 13.5909 0.770524 13.6062 0.733617C13.6197 0.69441 13.6558 0.667431 13.6972 0.665616L15.4153 0.533081C15.4287 0.532475 15.4417 0.537729 15.451 0.547481C15.4616 0.5576 15.4672 0.571807 15.4665 0.586415L15.3331 2.30378C15.3302 2.34446 15.3038 2.3797 15.2656 2.39399C15.2274 2.40827 15.1844 2.39897 15.1555 2.37018L14.7691 1.98324C14.6633 1.88317 14.4977 1.88317 14.3918 1.98324L11.8215 4.55741C11.5045 4.85923 11.0065 4.85923 10.6895 4.55741L9.49967 3.36699C9.39986 3.2665 9.26398 3.21013 9.12235 3.21046C8.98096 3.21029 8.84534 3.26654 8.74556 3.36673L4.83312 7.28119C4.51633 7.58372 4.01767 7.58372 3.70088 7.28119L3.0441 6.62384C2.83587 6.41581 2.49848 6.41581 2.29025 6.62384L0.988146 7.92386C0.883666 8.02611 0.716634 8.02611 0.612155 7.92386C0.561717 7.87486 0.533258 7.80752 0.533258 7.7372C0.533258 7.66687 0.561717 7.59953 0.612155 7.55053L0.613488 7.54653Z" fill="#1D2730"/>
<path d="M10.6666 10.1331C10.6689 8.87743 9.79495 7.79022 8.56812 7.52268C7.34129 7.25514 6.09405 7.87976 5.5734 9.02244C5.05276 10.1651 5.3998 11.5162 6.40668 12.2665H6.40001C6.08385 12.2651 5.7968 12.4508 5.6685 12.7398C5.5402 13.0288 5.59496 13.3663 5.80802 13.5999C5.53068 13.9013 5.53068 14.3651 5.80802 14.6665C5.59496 14.9001 5.5402 15.2376 5.6685 15.5266C5.7968 15.8156 6.08385 16.0013 6.40001 15.9999H9.59993C9.91609 16.0013 10.2031 15.8156 10.3314 15.5266C10.4597 15.2376 10.405 14.9001 10.1919 14.6665C10.4693 14.3651 10.4693 13.9013 10.1919 13.5999C10.405 13.3663 10.4597 13.0288 10.3314 12.7398C10.2031 12.4508 9.91609 12.2651 9.59993 12.2665H9.59327C10.2678 11.7648 10.6658 10.9739 10.6666 10.1331ZM9.86659 14.1332C9.86659 14.2805 9.7472 14.3999 9.59993 14.3999H6.40001C6.25274 14.3999 6.13335 14.2805 6.13335 14.1332C6.13335 13.9859 6.25274 13.8665 6.40001 13.8665H9.59993C9.7472 13.8665 9.86659 13.9859 9.86659 14.1332ZM9.59993 15.4666H6.40001C6.25274 15.4666 6.13335 15.3472 6.13335 15.1999C6.13335 15.0526 6.25274 14.9332 6.40001 14.9332H9.59993C9.7472 14.9332 9.86659 15.0526 9.86659 15.1999C9.86659 15.3472 9.7472 15.4666 9.59993 15.4666ZM9.59993 12.7998C9.7472 12.7998 9.86659 12.9192 9.86659 13.0665C9.86659 13.2138 9.7472 13.3332 9.59993 13.3332H6.40001C6.25274 13.3332 6.13335 13.2138 6.13335 13.0665C6.13335 12.9192 6.25274 12.7998 6.40001 12.7998H9.59993ZM5.86669 10.1331C5.86669 8.95491 6.82179 7.99977 7.99997 7.99977C9.17815 7.99977 10.1333 8.95491 10.1333 10.1331C10.1333 11.3114 9.17815 12.2665 7.99997 12.2665C6.82234 12.2652 5.86801 11.3108 5.86669 10.1331Z" fill="#1D2730"/>
<path fill-rule="evenodd" clip-rule="evenodd" d="M7.99999 9.86656C7.87061 9.86643 7.75999 9.77345 7.73761 9.64602C7.71523 9.51859 7.78754 9.39348 7.90913 9.34927C8.03071 9.30506 8.1665 9.3545 8.23118 9.46655C8.27724 9.55214 8.36621 9.60589 8.46339 9.60684C8.56057 9.60779 8.65058 9.55579 8.6983 9.47113C8.74602 9.38646 8.7439 9.28253 8.69277 9.19988C8.5961 9.03765 8.44515 8.91485 8.26665 8.85321V8.79987C8.26665 8.6526 8.14726 8.5332 7.99999 8.5332C7.85272 8.5332 7.73333 8.6526 7.73333 8.79987V8.84894C7.36626 8.97824 7.14596 9.35344 7.2119 9.737C7.27785 10.1206 7.61081 10.4006 7.99999 10.3999C8.12936 10.4 8.23998 10.493 8.26237 10.6204C8.28475 10.7479 8.21244 10.873 8.09085 10.9172C7.96926 10.9614 7.83348 10.912 7.76879 10.7999C7.69296 10.6773 7.53344 10.6372 7.40863 10.7093C7.28382 10.7814 7.2389 10.9396 7.30721 11.0666C7.40401 11.2289 7.55516 11.3517 7.73386 11.4132V11.4666C7.73386 11.6139 7.85325 11.7333 8.00052 11.7333C8.14779 11.7333 8.26718 11.6139 8.26718 11.4666V11.4175C8.63435 11.2882 8.85466 10.9128 8.78856 10.5292C8.72247 10.1456 8.38926 9.86556 7.99999 9.86656Z" fill="#1D2730"/>
<path d="M13.3332 5.33301C12.1844 5.33173 11.1643 6.06713 10.8024 7.1574C10.4405 8.24768 10.8184 9.44715 11.7399 10.1331H11.7332C11.417 10.1317 11.13 10.3174 11.0017 10.6064C10.8734 10.8954 10.9282 11.2329 11.1412 11.4664C10.8639 11.7679 10.8639 12.2316 11.1412 12.5331C10.8639 12.8346 10.8639 13.2983 11.1412 13.5998C10.8639 13.9013 10.8639 14.365 11.1412 14.6665C10.9282 14.9001 10.8734 15.2376 11.0017 15.5265C11.13 15.8155 11.417 16.0012 11.7332 15.9998H14.9331C15.2493 16.0012 15.5363 15.8155 15.6646 15.5265C15.7929 15.2376 15.7382 14.9001 15.5251 14.6665C15.8025 14.365 15.8025 13.9013 15.5251 13.5998C15.8025 13.2983 15.8025 12.8346 15.5251 12.5331C15.8025 12.2316 15.8025 11.7679 15.5251 11.4664C15.7382 11.2329 15.7929 10.8954 15.6646 10.6064C15.5363 10.3174 15.2493 10.1317 14.9331 10.1331H14.9262C15.848 9.44735 16.2261 8.24777 15.8642 7.15735C15.5024 6.06693 14.482 5.3315 13.3332 5.33301ZM15.1998 11.9998C15.1998 12.1471 15.0804 12.2665 14.9331 12.2665H11.7332C11.5859 12.2665 11.4665 12.1471 11.4665 11.9998C11.4665 11.8525 11.5859 11.7331 11.7332 11.7331H14.9331C15.0804 11.7331 15.1998 11.8525 15.1998 11.9998ZM15.1998 13.0665C15.1998 13.2137 15.0804 13.3331 14.9331 13.3331H11.7332C11.5859 13.3331 11.4665 13.2137 11.4665 13.0665C11.4665 12.9192 11.5859 12.7998 11.7332 12.7998H14.9331C15.0804 12.7998 15.1998 12.9192 15.1998 13.0665ZM15.1998 14.1332C15.1998 14.2804 15.0804 14.3998 14.9331 14.3998H11.7332C11.5859 14.3998 11.4665 14.2804 11.4665 14.1332C11.4665 13.9859 11.5859 13.8665 11.7332 13.8665H14.9331C15.0804 13.8665 15.1998 13.9859 15.1998 14.1332ZM14.9331 15.4665H11.7332C11.5859 15.4665 11.4665 15.3471 11.4665 15.1998C11.4665 15.0526 11.5859 14.9332 11.7332 14.9332H14.9331C15.0804 14.9332 15.1998 15.0526 15.1998 15.1998C15.1998 15.3471 15.0804 15.4665 14.9331 15.4665ZM14.9331 10.6664C15.0804 10.6664 15.1998 10.7858 15.1998 10.9331C15.1998 11.0804 15.0804 11.1998 14.9331 11.1998H11.7332C11.5859 11.1998 11.4665 11.0804 11.4665 10.9331C11.4665 10.7858 11.5859 10.6664 11.7332 10.6664H14.9331ZM13.3332 10.1331C12.155 10.1331 11.1999 9.17795 11.1999 7.99972C11.1999 6.82149 12.155 5.86635 13.3332 5.86635C14.5113 5.86635 15.4664 6.82149 15.4664 7.99972C15.4651 9.1774 14.5108 10.1318 13.3332 10.1331Z" fill="#1D2730"/>
<path fill-rule="evenodd" clip-rule="evenodd" d="M13.3332 7.73326C13.2038 7.73313 13.0932 7.64015 13.0708 7.51272C13.0484 7.38529 13.1207 7.26018 13.2423 7.21597C13.3639 7.17176 13.4997 7.2212 13.5644 7.33325C13.6402 7.45583 13.7997 7.49597 13.9245 7.42386C14.0493 7.35175 14.0943 7.19351 14.026 7.06658C13.9294 6.90424 13.7784 6.7814 13.5998 6.71991V6.66657C13.5998 6.51929 13.4805 6.3999 13.3332 6.3999C13.1859 6.3999 13.0665 6.51929 13.0665 6.66657V6.71564C12.6994 6.84494 12.4791 7.22014 12.5451 7.6037C12.611 7.98726 12.944 8.26734 13.3332 8.2666C13.4626 8.26673 13.5732 8.3597 13.5956 8.48713C13.6179 8.61456 13.5456 8.73968 13.424 8.78389C13.3025 8.8281 13.1667 8.77865 13.102 8.66661C13.0262 8.54402 12.8666 8.50389 12.7418 8.576C12.617 8.6481 12.5721 8.80634 12.6404 8.93328C12.7371 9.09571 12.8883 9.21856 13.0671 9.27995V9.33328C13.0671 9.48056 13.1864 9.59995 13.3337 9.59995C13.481 9.59995 13.6004 9.48056 13.6004 9.33328V9.28422C13.9675 9.15489 14.1878 8.77953 14.1218 8.39589C14.0557 8.01225 13.7225 7.73226 13.3332 7.73326Z" fill="#1D2730"/>
<path d="M1.07327 14.4H1.0666C0.624784 14.4 0.26662 14.7582 0.26662 15.2C0.26662 15.6419 0.624784 16.0001 1.0666 16.0001H4.26652C4.70834 16.0001 5.0665 15.6419 5.0665 15.2C5.0665 14.7582 4.70834 14.4 4.26652 14.4H4.25986C5.18146 13.7133 5.55938 12.5133 5.19764 11.4223C4.83589 10.3314 3.81588 9.59497 2.66656 9.59497C1.51724 9.59497 0.497233 10.3314 0.135488 11.4223C-0.226256 12.5133 0.151665 13.7133 1.07327 14.4ZM4.26652 14.9334C4.4138 14.9334 4.53318 15.0528 4.53318 15.2C4.53318 15.3473 4.4138 15.4667 4.26652 15.4667H1.0666C0.919329 15.4667 0.799941 15.3473 0.799941 15.2C0.799941 15.0528 0.919329 14.9334 1.0666 14.9334H4.26652ZM2.66656 10.1333C3.84474 10.1333 4.79984 11.0884 4.79984 12.2667C4.79984 13.4449 3.84474 14.4 2.66656 14.4C1.48838 14.4 0.533281 13.4449 0.533281 12.2667C0.534603 11.089 1.48893 10.1346 2.66656 10.1333Z" fill="#1D2730"/>
<path fill-rule="evenodd" clip-rule="evenodd" d="M2.66677 12.5334C2.79614 12.5336 2.90676 12.6265 2.92915 12.754C2.95153 12.8814 2.87922 13.0065 2.75763 13.0507C2.63604 13.0949 2.50026 13.0455 2.43557 12.9335C2.38952 12.8479 2.30055 12.7941 2.20337 12.7932C2.10618 12.7922 2.01618 12.8442 1.96846 12.9289C1.92073 13.0135 1.92285 13.1175 1.97398 13.2001C2.07079 13.3625 2.22194 13.4853 2.40064 13.5468V13.6001C2.40064 13.7474 2.52003 13.8668 2.6673 13.8668C2.81457 13.8668 2.93396 13.7474 2.93396 13.6001V13.5511C3.30113 13.4217 3.52144 13.0464 3.45534 12.6627C3.38925 12.2791 3.05604 11.9991 2.66677 12.0001C2.53739 12 2.42677 11.907 2.40439 11.7796C2.382 11.6521 2.45432 11.527 2.57591 11.4828C2.69749 11.4386 2.83327 11.488 2.89796 11.6001C2.94402 11.6857 3.03299 11.7394 3.13017 11.7404C3.22735 11.7413 3.31736 11.6893 3.36508 11.6047C3.4128 11.52 3.41068 11.4161 3.35955 11.3334C3.26288 11.1712 3.11193 11.0484 2.93343 10.9868V10.9334C2.93343 10.7861 2.81404 10.6667 2.66677 10.6667C2.51949 10.6667 2.40011 10.7861 2.40011 10.9334V10.9825C2.03304 11.1118 1.81274 11.487 1.87868 11.8705C1.94463 12.2541 2.27759 12.5342 2.66677 12.5334Z" fill="#1D2730"/>
</svg>
