<svg width="16" height="16" viewBox="0 0 16 16" fill="none" xmlns="http://www.w3.org/2000/svg">
<path d="M6.75838 15.9998C6.00095 15.9992 5.27479 15.7691 4.73921 15.3601C4.20364 14.951 3.90239 14.3964 3.90156 13.818C3.89847 13.7315 3.9082 13.6451 3.93058 13.5603C3.94678 13.5043 3.97729 13.4513 4.02035 13.4043C4.06341 13.3573 4.11819 13.3172 4.18154 13.2864C4.24489 13.2556 4.31557 13.2347 4.38955 13.2247C4.46352 13.2148 4.53933 13.2161 4.61264 13.2286C4.68594 13.2411 4.75531 13.2645 4.81677 13.2974C4.87823 13.3304 4.93057 13.3723 4.9708 13.4207C5.01103 13.4692 5.03836 13.5232 5.05122 13.5797C5.06409 13.6362 5.06224 13.6941 5.04577 13.7501C5.04339 13.7727 5.04289 13.7954 5.04429 13.818C5.04429 14.1652 5.22488 14.4982 5.54633 14.7437C5.86779 14.9892 6.30377 15.1271 6.75838 15.1271C7.21298 15.1271 7.64897 14.9892 7.97042 14.7437C8.29187 14.4982 8.47246 14.1652 8.47246 13.818C8.47155 13.5446 8.36094 13.278 8.15555 13.0541C8.06944 12.959 8.03628 12.8417 8.06334 12.7279C8.09041 12.6141 8.17549 12.5133 8.2999 12.4474C8.42431 12.3815 8.57786 12.356 8.72684 12.3766C8.87582 12.3971 9.00803 12.462 9.09443 12.5569C9.3956 12.884 9.57348 13.268 9.60873 13.667C9.64397 14.0659 9.53522 14.4647 9.29431 14.8197C9.0534 15.1748 8.68957 15.4725 8.24243 15.6806C7.79529 15.8887 7.28198 15.9991 6.75838 15.9998Z" fill="#EDEDED"/>
<path d="M2.62976 14.4161C2.14347 14.4161 1.66671 14.3131 1.25245 14.1186C0.838185 13.9241 0.502657 13.6457 0.283151 13.3143C0.0636442 12.9829 -0.031242 12.6115 0.00903779 12.2414C0.0493176 11.8713 0.223185 11.517 0.511318 11.2178L1.00421 10.7061C1.15162 10.5537 1.2148 10.3631 1.18019 10.1754L0.555587 6.72684C0.385533 5.77881 0.673799 4.81595 1.3664 4.01857C2.05901 3.22119 3.10845 2.64396 4.3182 2.395L5.3538 2.18335C6.56439 1.93704 7.85104 2.03618 8.97281 2.46222C10.0946 2.88825 10.9746 3.61196 11.448 4.49783L13.165 7.72287C13.258 7.89854 13.4375 8.03961 13.665 8.1152L14.4264 8.37003C14.7852 8.48919 15.1043 8.66834 15.3603 8.89428C15.6163 9.12022 15.8026 9.38717 15.9054 9.67544L15.9114 9.6905C16.0906 10.2047 15.9957 10.7522 15.6473 11.213C15.299 11.6739 14.7256 12.0105 14.053 12.149L3.30937 14.3476C3.08771 14.393 2.85924 14.416 2.62976 14.4161ZM6.68138 2.92231C6.33292 2.92236 5.98598 2.95741 5.6495 3.02657L4.6139 3.23822C3.673 3.43182 2.85677 3.88074 2.31809 4.50091C1.77941 5.12107 1.55523 5.86995 1.68753 6.60727L2.31208 10.0559C2.38795 10.4688 2.24893 10.8879 1.92485 11.2235L1.4316 11.7351C1.24932 11.9247 1.14858 12.1527 1.14328 12.3879C1.13799 12.623 1.22841 12.8536 1.40205 13.0478C1.57569 13.242 1.82399 13.3902 2.11267 13.472C2.40135 13.5538 2.71616 13.5651 3.01364 13.5045L13.7572 11.3058C14.1349 11.228 14.4573 11.0397 14.6546 10.7817C14.8519 10.5236 14.9082 10.2166 14.8114 9.92715L14.8066 9.91493C14.7495 9.75042 14.6444 9.5979 14.4992 9.4688C14.354 9.3397 14.1724 9.23737 13.9681 9.16947L13.2067 8.91463C12.706 8.74814 12.3109 8.43824 12.1063 8.05157L10.3893 4.82653C10.0885 4.26389 9.5753 3.78234 8.91498 3.44322C8.25465 3.10411 7.47711 2.92277 6.68138 2.92231Z" fill="#EDEDED"/>
<path d="M4.47291 3.20002C4.05855 3.20002 3.65351 3.10618 3.30899 2.93037C2.96447 2.75456 2.69595 2.50467 2.53738 2.21231C2.37881 1.91994 2.33733 1.59823 2.41816 1.28786C2.499 0.977492 2.69853 0.692398 2.99152 0.468632C3.28451 0.244867 3.6578 0.0924811 4.06419 0.0307444C4.47058 -0.0309922 4.89182 0.000693264 5.27463 0.121794C5.65744 0.242895 5.98463 0.447972 6.21483 0.711092C6.44503 0.974212 6.5679 1.28356 6.5679 1.60001C6.56734 2.02423 6.34644 2.43094 5.95367 2.73091C5.5609 3.03088 5.02836 3.19959 4.47291 3.20002ZM4.47291 0.872733C4.28456 0.872733 4.10045 0.915387 3.94385 0.995301C3.78725 1.07521 3.6652 1.1888 3.59312 1.32169C3.52105 1.45458 3.50219 1.60082 3.53893 1.74189C3.57568 1.88297 3.66637 2.01256 3.79955 2.11427C3.93273 2.21598 4.1024 2.28525 4.28713 2.31331C4.47185 2.34137 4.66332 2.32697 4.83733 2.27192C5.01133 2.21688 5.16005 2.12366 5.26469 2.00406C5.36933 1.88446 5.42518 1.74385 5.42518 1.60001C5.42494 1.40718 5.32454 1.2223 5.14601 1.08594C4.96747 0.949592 4.72539 0.872911 4.47291 0.872733Z" fill="#EDEDED"/>
<path d="M15.5 4C15.5 6.20914 13.7091 8 11.5 8C9.29086 8 7.5 6.20914 7.5 4C7.5 1.79086 9.29086 0 11.5 0C13.7091 0 15.5 1.79086 15.5 4Z" fill="#FD5959"/>
</svg>
