<svg width="16" height="13" viewBox="0 0 16 13" fill="none" xmlns="http://www.w3.org/2000/svg">
<path d="M2.62976 12.4161C2.14347 12.4161 1.66671 12.3131 1.25245 12.1186C0.838185 11.9241 0.502657 11.6457 0.283151 11.3143C0.0636442 10.9829 -0.031242 10.6115 0.00903779 10.2414C0.0493176 9.87128 0.223185 9.51695 0.511318 9.21778L1.00421 8.70613C1.15162 8.55366 1.2148 8.36311 1.18019 8.17544L0.555587 4.72684C0.385533 3.77881 0.673799 2.81595 1.3664 2.01857C2.05901 1.22119 3.10845 0.643964 4.3182 0.394998L5.3538 0.183349C6.56439 -0.0629604 7.85104 0.0361843 8.97281 0.462219C10.0946 0.888254 10.9746 1.61196 11.448 2.49783L13.165 5.72287C13.258 5.89854 13.4375 6.03961 13.665 6.1152L14.4264 6.37003C14.7852 6.48919 15.1043 6.66834 15.3603 6.89428C15.6163 7.12022 15.8026 7.38717 15.9054 7.67544L15.9114 7.6905C16.0906 8.2047 15.9957 8.7522 15.6473 9.21304C15.299 9.67388 14.7256 10.0105 14.053 10.149L3.30937 12.3476C3.08771 12.393 2.85924 12.416 2.62976 12.4161ZM6.68138 0.922308C6.33292 0.92236 5.98598 0.957414 5.6495 1.02657L4.6139 1.23822C3.673 1.43182 2.85677 1.88074 2.31809 2.50091C1.77941 3.12107 1.55523 3.86995 1.68753 4.60727L2.31208 8.05587C2.38795 8.46877 2.24893 8.88795 1.92485 9.22349L1.4316 9.73514C1.24932 9.92466 1.14858 10.1527 1.14328 10.3879C1.13799 10.623 1.22841 10.8536 1.40205 11.0478C1.57569 11.242 1.82399 11.3902 2.11267 11.472C2.40135 11.5538 2.71616 11.5651 3.01364 11.5045L13.7572 9.30585C14.1349 9.22799 14.4573 9.03968 14.6546 8.78165C14.8519 8.52363 14.9082 8.21665 14.8114 7.92715L14.8066 7.91493C14.7495 7.75042 14.6444 7.5979 14.4992 7.4688C14.354 7.3397 14.1724 7.23737 13.9681 7.16947L13.2067 6.91463C12.706 6.74814 12.3109 6.43824 12.1063 6.05157L10.3893 2.82653C10.0885 2.26389 9.5753 1.78234 8.91498 1.44322C8.25465 1.10411 7.47711 0.92277 6.68138 0.922308Z" fill="#EDEDED"/>
</svg>
