<svg width="16" height="16" viewBox="0 0 16 16" fill="none" xmlns="http://www.w3.org/2000/svg">
<path d="M16 14.4003C16 11.2803 13.52 8.80029 10.4 8.80029H5.6C2.48 8.80029 0 11.2803 0 14.4003V16.0003H16V14.4003ZM1.6 14.4003C1.6 12.1603 3.36 10.4003 5.6 10.4003H10.4C12.64 10.4003 14.4 12.1603 14.4 14.4003H1.6Z" fill="#EDEDED"/>
<path d="M12 4C12 1.76 10.24 0 8 0C5.76 0 4 1.76 4 4C4 6.24 5.76 8 8 8C10.24 8 12 6.24 12 4ZM5.6 4C5.6 2.64 6.64 1.6 8 1.6C9.36 1.6 10.4 2.64 10.4 4C10.4 5.36 9.36 6.4 8 6.4C6.64 6.4 5.6 5.36 5.6 4Z" fill="#EDEDED"/>
</svg>
