<svg width="16" height="16" viewBox="0 0 16 16" fill="none" xmlns="http://www.w3.org/2000/svg">
<path d="M12.1446 16C11.9342 16.0001 11.727 15.9466 11.5411 15.844L8.08704 13.9514C8.06028 13.9365 8.03039 13.9287 8.00004 13.9287C7.96969 13.9287 7.93981 13.9365 7.91304 13.9514L4.45955 15.844C4.24554 15.9614 4.00428 16.014 3.76307 15.9959C3.52186 15.9778 3.29034 15.8897 3.09468 15.7415C2.89903 15.5933 2.74707 15.391 2.65599 15.1574C2.5649 14.9239 2.53834 14.6684 2.5793 14.42L3.23874 10.4112C3.24381 10.3798 3.24141 10.3476 3.23175 10.3173C3.22208 10.2871 3.20546 10.2598 3.18333 10.2379L0.391496 7.39727C0.218158 7.22122 0.0955824 6.99807 0.037659 6.75311C-0.0202645 6.50815 -0.0112205 6.25117 0.063766 6.0113C0.138752 5.77142 0.276684 5.55824 0.461932 5.3959C0.64718 5.23356 0.872339 5.12855 1.1119 5.09277L4.97048 4.50871C5.0005 4.50415 5.02901 4.49204 5.05353 4.47342C5.07806 4.4548 5.09786 4.43022 5.11123 4.40183L6.83632 0.753571C6.94317 0.527408 7.10862 0.336952 7.31395 0.20377C7.51928 0.0705877 7.75628 0 7.9981 0C8.23993 0 8.47692 0.0705877 8.68225 0.20377C8.88758 0.336952 9.05304 0.527408 9.15989 0.753571L10.8861 4.40067C10.8996 4.42898 10.9194 4.45348 10.9439 4.47208C10.9684 4.49069 10.9969 4.50286 11.0268 4.50755L14.8887 5.0922C15.1282 5.12818 15.3532 5.23329 15.5383 5.39566C15.7234 5.55803 15.8612 5.77116 15.9362 6.01095C16.0112 6.25074 16.0203 6.50761 15.9625 6.7525C15.9047 6.9974 15.7823 7.22055 15.6091 7.3967L12.8145 10.2356C12.7925 10.2576 12.7759 10.2849 12.7663 10.3151C12.7566 10.3453 12.7542 10.3775 12.7591 10.4089L13.4186 14.4176C13.4503 14.6113 13.4411 14.8099 13.3918 14.9996C13.3424 15.1892 13.254 15.3653 13.1327 15.5157C13.0114 15.6661 12.8601 15.7871 12.6893 15.8704C12.5186 15.9536 12.3325 15.9971 12.144 15.9977L12.1446 16ZM8.00004 12.7729C8.21021 12.7728 8.4172 12.8264 8.60296 12.9289L12.0565 14.8209C12.087 14.8391 12.1221 14.8475 12.1572 14.8449C12.1923 14.8423 12.2259 14.8289 12.2537 14.8064C12.2828 14.7857 12.3053 14.7565 12.3186 14.7225C12.3319 14.6885 12.3354 14.6512 12.3285 14.6152L11.6685 10.6059C11.6333 10.3901 11.6488 10.1686 11.7136 9.96046C11.7785 9.75228 11.8908 9.5636 12.0409 9.4106L14.8355 6.57114C14.8605 6.54567 14.8781 6.51344 14.8864 6.47808C14.8947 6.44272 14.8934 6.40565 14.8826 6.37104C14.8717 6.33643 14.8518 6.30567 14.8251 6.28223C14.7984 6.25879 14.7659 6.2436 14.7314 6.23838L10.87 5.65316C10.6621 5.62178 10.4647 5.5381 10.2948 5.40937C10.1248 5.28063 9.98753 5.1107 9.8947 4.91426L8.16629 1.26658C8.15081 1.23394 8.12688 1.20646 8.09721 1.18724C8.06754 1.16803 8.03331 1.15784 7.99838 1.15784C7.96345 1.15784 7.92922 1.16803 7.89955 1.18724C7.86987 1.20646 7.84595 1.23394 7.83047 1.26658L6.10539 4.91311C6.0125 5.10962 5.87511 5.2796 5.70508 5.40834C5.53505 5.53708 5.33751 5.62071 5.12952 5.652L1.26872 6.23838C1.23409 6.24349 1.20154 6.25863 1.17476 6.28208C1.14798 6.30553 1.12805 6.33635 1.11725 6.37103C1.10646 6.40571 1.10521 6.44286 1.11367 6.47824C1.12213 6.51361 1.13995 6.5458 1.1651 6.57114L3.95914 9.4106C4.10929 9.5636 4.22161 9.75228 4.28647 9.96046C4.35133 10.1686 4.36679 10.3901 4.33154 10.6059L3.67154 14.6152C3.66555 14.6512 3.66938 14.6883 3.6826 14.7222C3.69581 14.756 3.71788 14.7853 3.74629 14.8068C3.7747 14.8282 3.80831 14.8409 3.8433 14.8434C3.87828 14.8459 3.91324 14.8381 3.94418 14.8209L7.39712 12.9283C7.58301 12.8262 7.78995 12.7729 8.00004 12.7729Z" fill="#EDEDED"/>
</svg>
