<svg width="16" height="16" viewBox="0 0 16 16" fill="none" xmlns="http://www.w3.org/2000/svg">
<path d="M13.75 4.58544C13.8983 4.58549 14.0433 4.54155 14.1666 4.45918C14.29 4.3768 14.3861 4.2597 14.4429 4.12268C14.4997 3.98566 14.5145 3.83488 14.4856 3.68941C14.4567 3.54395 14.3852 3.41033 14.2803 3.30547L13.5732 2.59834C13.4482 2.4732 13.283 2.39628 13.1068 2.38121C12.9305 2.36614 12.7547 2.41387 12.6102 2.51597C12.4658 2.61808 12.3621 2.76797 12.3176 2.93913C12.273 3.1103 12.2904 3.29171 12.3667 3.45128L11.6432 4.17478C10.8592 3.60946 9.95417 3.23473 8.99999 3.08037V2.457C9.1461 2.40515 9.27259 2.30937 9.36211 2.18279C9.45163 2.05621 9.49979 1.90504 9.49999 1.75V1.25C9.49977 1.05116 9.42068 0.86052 9.28007 0.719917C9.13947 0.579313 8.94883 0.500223 8.74999 0.5H7.24999C7.05114 0.500223 6.86051 0.579313 6.7199 0.719917C6.5793 0.86052 6.50021 1.05116 6.49999 1.25V1.75C6.50019 1.90504 6.54835 2.05621 6.63787 2.18279C6.72739 2.30937 6.85388 2.40515 6.99999 2.457V3.08037C6.04581 3.23473 5.14076 3.60946 4.35674 4.17478L3.63327 3.45128C3.70958 3.2917 3.727 3.11028 3.68244 2.9391C3.63787 2.76792 3.5342 2.61802 3.38976 2.51591C3.24533 2.4138 3.06943 2.36607 2.89319 2.38115C2.71695 2.39624 2.55172 2.47317 2.42674 2.59834L1.71968 3.30544C1.59442 3.43039 1.51742 3.59563 1.50229 3.77191C1.48716 3.94819 1.53488 4.12413 1.63701 4.2686C1.73914 4.41307 1.88909 4.51676 2.06031 4.5613C2.23154 4.60584 2.413 4.58836 2.57258 4.51197L3.25155 5.19091C2.28146 6.32068 1.7487 7.76089 1.74999 9.25C1.74999 12.6962 4.55374 15.5 7.99999 15.5C11.4462 15.5 14.25 12.6962 14.25 9.25C14.2513 7.76089 13.7185 6.32069 12.7484 5.19091L13.4274 4.51197C13.5281 4.56013 13.6383 4.58523 13.75 4.58544ZM12.8661 2.95191C12.913 2.9051 12.9766 2.87881 13.0429 2.87881C13.1091 2.87881 13.1727 2.9051 13.2196 2.95191L13.9268 3.65903C13.9723 3.70619 13.9975 3.76934 13.9969 3.83489C13.9963 3.90044 13.97 3.96314 13.9237 4.00949C13.8773 4.05583 13.8146 4.08212 13.7491 4.08268C13.6835 4.08325 13.6204 4.05804 13.5732 4.0125L12.8661 3.30541C12.8193 3.25848 12.793 3.19493 12.793 3.12866C12.793 3.0624 12.8193 2.99884 12.8661 2.95191ZM12.6893 3.83581L13.0429 4.18934L12.4083 4.82387C12.2901 4.70617 12.1673 4.5933 12.0398 4.48528L12.6893 3.83581ZM6.99999 1.25C7.00006 1.18372 7.02643 1.12017 7.07329 1.07331C7.12016 1.02644 7.18371 1.00007 7.24999 1H8.74999C8.81627 1.00007 8.87982 1.02644 8.92668 1.07331C8.97355 1.12017 8.99991 1.18372 8.99999 1.25V1.75C8.99991 1.81628 8.97355 1.87983 8.92668 1.92669C8.87982 1.97356 8.81627 1.99993 8.74999 2H7.24999C7.18371 1.99993 7.12016 1.97356 7.07329 1.92669C7.02643 1.87983 7.00006 1.81628 6.99999 1.75V1.25ZM7.49999 2.5H8.49999V3.02003C8.33499 3.00691 8.16832 3.00023 7.99999 3C7.83165 2.99977 7.66499 3.00645 7.49999 3.02003V2.5ZM3.59161 4.82387L2.95724 4.18934L3.31077 3.83581L3.96027 4.48528C3.83294 4.59334 3.71005 4.70621 3.59161 4.82387ZM2.07321 4.0125C2.04999 3.98928 2.03157 3.96172 2.01901 3.93139C2.00645 3.90106 1.99998 3.86855 1.99998 3.83572C1.99998 3.80289 2.00645 3.77038 2.01901 3.74004C2.03157 3.70971 2.04999 3.68215 2.07321 3.65894L2.7803 2.95191C2.82719 2.90502 2.89078 2.87868 2.95708 2.87868C3.02339 2.87868 3.08698 2.90502 3.13386 2.95191C3.18075 2.99879 3.20709 3.06238 3.20709 3.12869C3.20709 3.19499 3.18075 3.25858 3.13386 3.30547L2.42674 4.0125C2.37982 4.05931 2.31625 4.0856 2.24997 4.0856C2.1837 4.0856 2.12013 4.05931 2.07321 4.0125ZM7.99999 15C4.82943 15 2.24999 12.4206 2.24999 9.25C2.24999 6.07944 4.82943 3.5 7.99999 3.5C11.1706 3.5 13.75 6.07944 13.75 9.25C13.75 12.4206 11.1706 15 7.99999 15Z" fill="#1D2730"/>
<path d="M8 4C5.10512 4 2.75 6.35512 2.75 9.25C2.75 12.1449 5.10512 14.5 8 14.5C10.8949 14.5 13.25 12.1449 13.25 9.25C13.25 6.35512 10.8949 4 8 4ZM12.5 9.5H12.7434C12.6869 10.5858 12.2581 11.6189 11.5292 12.4257L11.3588 12.2552C11.3118 12.2088 11.2483 12.1829 11.1823 12.1831C11.1163 12.1833 11.053 12.2096 11.0063 12.2563C10.9596 12.303 10.9332 12.3662 10.933 12.4323C10.9328 12.4983 10.9588 12.5618 11.0052 12.6088L11.1756 12.7792C10.3689 13.5081 9.33575 13.9369 8.25 13.9934V13.75C8.25 13.6837 8.22366 13.6201 8.17678 13.5732C8.12989 13.5263 8.0663 13.5 8 13.5C7.9337 13.5 7.87011 13.5263 7.82322 13.5732C7.77634 13.6201 7.75 13.6837 7.75 13.75V13.9934C6.66425 13.9368 5.63112 13.5081 4.82438 12.7792L4.99481 12.6088C5.04122 12.5618 5.06716 12.4983 5.06696 12.4323C5.06675 12.3662 5.04043 12.303 4.99373 12.2563C4.94703 12.2096 4.88375 12.1833 4.81771 12.1831C4.75167 12.1829 4.68823 12.2088 4.64125 12.2552L4.47081 12.4257C3.74194 11.6189 3.31315 10.5858 3.25656 9.5H3.5C3.5663 9.5 3.62989 9.47366 3.67678 9.42678C3.72366 9.37989 3.75 9.3163 3.75 9.25C3.75 9.1837 3.72366 9.12011 3.67678 9.07322C3.62989 9.02634 3.5663 9 3.5 9H3.25656C3.31315 7.91424 3.74194 6.88109 4.47081 6.07434L4.64125 6.24478C4.68823 6.2912 4.75167 6.31714 4.81771 6.31694C4.88375 6.31674 4.94703 6.29042 4.99373 6.24373C5.04043 6.19703 5.06675 6.13375 5.06696 6.06771C5.06716 6.00167 5.04122 5.93823 4.99481 5.89125L4.82438 5.72078C5.63112 4.99193 6.66425 4.56315 7.75 4.50656V4.75C7.75 4.8163 7.77634 4.87989 7.82322 4.92678C7.87011 4.97366 7.9337 5 8 5C8.0663 5 8.12989 4.97366 8.17678 4.92678C8.22366 4.87989 8.25 4.8163 8.25 4.75V4.50656C9.33575 4.56315 10.3689 4.99193 11.1756 5.72078L11.0052 5.89125C10.9817 5.91441 10.9631 5.94199 10.9504 5.97238C10.9376 6.00277 10.931 6.03538 10.9309 6.06834C10.9308 6.1013 10.9372 6.13395 10.9498 6.16442C10.9624 6.19489 10.9808 6.22257 11.0041 6.24587C11.0274 6.26918 11.0551 6.28764 11.0856 6.30021C11.1161 6.31277 11.1487 6.31919 11.1817 6.31909C11.2146 6.31899 11.2472 6.31237 11.2776 6.29962C11.308 6.28686 11.3356 6.26823 11.3588 6.24478L11.5292 6.07434C12.2581 6.88109 12.6869 7.91424 12.7434 9H12.5C12.4337 9 12.3701 9.02634 12.3232 9.07322C12.2763 9.12011 12.25 9.1837 12.25 9.25C12.25 9.3163 12.2763 9.37989 12.3232 9.42678C12.3701 9.47366 12.4337 9.5 12.5 9.5Z" fill="#1D2730"/>
<path d="M10.6768 8.57323C10.6299 8.52634 10.5663 8.5 10.5 8.5C10.4337 8.5 10.3701 8.52634 10.3232 8.57323C10.2763 8.62011 10.25 8.6837 10.25 8.75001C10.25 8.81631 10.2763 8.87991 10.3232 8.92679L10.3965 9.00001H8.70701C8.66949 8.89471 8.60902 8.79908 8.52998 8.72004C8.45094 8.641 8.35531 8.58053 8.25001 8.54301V7.60357L8.32323 7.67679C8.34645 7.70001 8.37401 7.71842 8.40434 7.73098C8.43467 7.74355 8.46718 7.75002 8.50001 7.75002C8.53284 7.75002 8.56535 7.74355 8.59569 7.73098C8.62602 7.71842 8.65358 7.70001 8.67679 7.67679C8.70001 7.65358 8.71842 7.62601 8.73099 7.59568C8.74355 7.56535 8.75002 7.53284 8.75002 7.50001C8.75002 7.46718 8.74355 7.43467 8.73099 7.40434C8.71842 7.374 8.70001 7.34644 8.67679 7.32323L8.17679 6.82323C8.15358 6.80001 8.12602 6.7816 8.09569 6.76903C8.06535 6.75647 8.03284 6.75 8.00001 6.75C7.96718 6.75 7.93467 6.75647 7.90434 6.76903C7.87401 6.7816 7.84645 6.80001 7.82323 6.82323L7.32323 7.32323C7.27635 7.37011 7.25001 7.4337 7.25001 7.50001C7.25001 7.56631 7.27635 7.6299 7.32323 7.67679C7.37012 7.72368 7.43371 7.75002 7.50001 7.75002C7.56632 7.75002 7.62991 7.72368 7.67679 7.67679L7.75001 7.60357V8.54301C7.63054 8.58522 7.52371 8.65701 7.43949 8.75168C7.35527 8.84634 7.29641 8.96081 7.2684 9.08438C7.24039 9.20796 7.24415 9.33661 7.27932 9.45834C7.31448 9.58007 7.37992 9.69091 7.46952 9.7805C7.55911 9.8701 7.66995 9.93554 7.79168 9.97071C7.91341 10.0059 8.04207 10.0096 8.16564 9.98162C8.28921 9.95361 8.40368 9.89475 8.49835 9.81053C8.59302 9.72631 8.6648 9.61948 8.70701 9.50001H10.3965L10.3232 9.57323C10.3 9.59644 10.2816 9.624 10.269 9.65434C10.2565 9.68467 10.25 9.71718 10.25 9.75001C10.25 9.78284 10.2565 9.81535 10.269 9.84568C10.2816 9.87601 10.3 9.90358 10.3232 9.92679C10.3464 9.95001 10.374 9.96842 10.4043 9.98099C10.4347 9.99355 10.4672 10 10.5 10C10.5328 10 10.5654 9.99355 10.5957 9.98099C10.626 9.96842 10.6536 9.95001 10.6768 9.92679L11.1768 9.42679C11.2 9.40358 11.2184 9.37601 11.231 9.34568C11.2436 9.31535 11.25 9.28284 11.25 9.25001C11.25 9.21718 11.2436 9.18467 11.231 9.15434C11.2184 9.124 11.2 9.09644 11.1768 9.07323L10.6768 8.57323ZM8.00001 9.50001C7.95057 9.50001 7.90223 9.48535 7.86112 9.45788C7.82001 9.43041 7.78796 9.39136 7.76904 9.34568C7.75012 9.3 7.74517 9.24973 7.75482 9.20124C7.76446 9.15274 7.78827 9.1082 7.82324 9.07323C7.8582 9.03827 7.90274 9.01446 7.95124 9.00481C7.99973 8.99517 8.05 9.00012 8.09568 9.01904C8.14136 9.03796 8.18041 9.07 8.20788 9.11112C8.23535 9.15223 8.25001 9.20056 8.25001 9.25001C8.24994 9.31629 8.22358 9.37984 8.17671 9.4267C8.12984 9.47357 8.06629 9.49993 8.00001 9.50001Z" fill="#1D2730"/>
</svg>
